HIERARCHY
ROOT Hips
{
	OFFSET -3.958830 18.904000 13.208200
	CHANNELS 6 Xposition Yposition Zposition Zrotation Yrotation Xrotation 
	JOINT LHipJoint
	{
		OFFSET 0.000000 0.000000 0.000000
		CHANNELS 3 Zrotation Yrotation Xrotation
		JOINT LeftUpLeg
		{
			OFFSET 1.800000 -1.400000 0.085000
			CHANNELS 3 Zrotation Yrotation Xrotation
			JOINT LeftLeg
			{
				OFFSET 2.215000 -6.000000 0.000000
				CHANNELS 3 Zrotation Yrotation Xrotation
				JOINT LeftFoot
				{
					OFFSET 2.500000 -6.900000 0.000000
					CHANNELS 3 Zrotation Yrotation Xrotation
					JOINT LeftToeBase
					{
						OFFSET 0.200000 -0.500000 1.950000
						CHANNELS 3 Zrotation Yrotation Xrotation
						End Site
						{
							OFFSET 0.000000 0.000000 0.000000
						}
					}
				}
			}
		}
	}
	JOINT RHipJoint
	{
		OFFSET 0.000000 0.000000 0.000000
		CHANNELS 3 Zrotation Yrotation Xrotation
		JOINT RightUpLeg
		{
			OFFSET -1.800000 -1.400000 0.085000
			CHANNELS 3 Zrotation Yrotation Xrotation
			JOINT RightLeg
			{
				OFFSET -2.215000 -6.000000 0.000000
				CHANNELS 3 Zrotation Yrotation Xrotation
				JOINT RightFoot
				{
					OFFSET -2.500000 -6.900000 0.000000
					CHANNELS 3 Zrotation Yrotation Xrotation
					JOINT RightToeBase
					{
						OFFSET -0.200000 -0.500000 1.950000
						CHANNELS 3 Zrotation Yrotation Xrotation
						End Site
						{
							OFFSET 0.000000 0.000000 0.000000
						}
					}
				}
			}
		}
	}
	JOINT LowerBack
	{
		OFFSET 0.000000 0.000000 0.000000
		CHANNELS 3 Zrotation Yrotation Xrotation
		JOINT Spine
		{
			OFFSET -0.087000 1.940000 -0.288900
			CHANNELS 3 Zrotation Yrotation Xrotation
			JOINT Spine1
			{
				OFFSET 0.000000 1.950000 0.060000
				CHANNELS 3 Zrotation Yrotation Xrotation
				JOINT Neck
				{
					OFFSET 0.000000 0.000000 0.000000
					CHANNELS 3 Zrotation Yrotation Xrotation
					JOINT Neck1
					{
						OFFSET 0.000000 1.600000 0.340000
						CHANNELS 3 Zrotation Yrotation Xrotation
						JOINT Head
						{
							OFFSET 0.000000 1.667000 -0.240000
							CHANNELS 3 Zrotation Yrotation Xrotation
							End Site
							{
								OFFSET 0.000000 0.000000 0.000000
							}
						}
					}
				}
				JOINT LeftShoulder
				{
					OFFSET 0.000000 0.000000 0.000000
					CHANNELS 3 Zrotation Yrotation Xrotation
					JOINT LeftArm
					{
						OFFSET 2.700000 1.550000 -0.730000
						CHANNELS 3 Zrotation Yrotation Xrotation
						JOINT LeftForeArm
						{
							OFFSET 5.450000 0.000000 0.000000
							CHANNELS 3 Zrotation Yrotation Xrotation
							JOINT LeftHand
							{
								OFFSET 3.450000 0.000000 0.000000
								CHANNELS 3 Zrotation Yrotation Xrotation
								JOINT LeftHandIndex1
								{
									OFFSET 0.750000 0.000000 0.000000
									CHANNELS 3 Zrotation Yrotation Xrotation
									End Site
									{
										OFFSET 0.000000 0.000000 0.000000
									}
								}
							}
						}
					}
				}
				JOINT RightShoulder
				{
					OFFSET 0.000000 0.000000 0.000000
					CHANNELS 3 Zrotation Yrotation Xrotation
					JOINT RightArm
					{
						OFFSET -2.700000 1.550000 -0.730000
						CHANNELS 3 Zrotation Yrotation Xrotation
						JOINT RightForeArm
						{
							OFFSET -5.450000 0.000000 0.000000
							CHANNELS 3 Zrotation Yrotation Xrotation
							JOINT RightHand
							{
								OFFSET -3.450000 0.000000 0.000000
								CHANNELS 3 Zrotation Yrotation Xrotation
								JOINT RightHandIndex1
								{
									OFFSET -0.750000 0.000000 0.000000
									CHANNELS 3 Zrotation Yrotation Xrotation
									End Site
									{
										OFFSET 0.000000 0.000000 0.000000
									}
								}
							}
						}
					}
				}
			}
		}
	}
}
MOTION
Frames: 4
Frame Time: 0.016667
0.671690 16.916640 -1.428250 -0.428553 6.502502 -5.983115 -15.735163 14.021733 3.733624 -0.789332 2.076774 4.171259 -9.721738 5.379100 1.605284 -0.661018 5.636250 3.214257 0.380750 -0.333850 0.329380 17.676332 -9.748675 3.102884 -4.896686 2.278019 -26.504723 4.694715 -3.155497 3.582172 -0.230968 -1.925965 3.894359 -0.155100 0.749600 0.618760 -2.059849 -4.312697 -8.514290 0.702700 0.011485 24.577158 1.833627 0.470422 -2.763575 3.664086 3.380866 -11.113210 2.277296 -2.530246 41.249516 -8.292000 0.420080 -14.612590 -21.725048 -11.591890 2.816601 17.048046 7.429728 1.671104 9.355936 -6.868001 -1.400172 -4.047545 2.356029 1.319570 0.347880 0.067820 0.428130 15.274334 10.031054 8.686556 -11.357855 -16.494916 -0.353478 -10.350279 5.650907 0.225386 1.795937 -1.154052 -0.579180 0.506970 0.119620 -0.331790 
0.671640 16.916610 -1.427990 -0.410351 6.491881 -6.003931 -15.735723 14.021667 3.734208 -0.804576 2.077797 4.198693 -9.702467 5.377104 1.607524 -0.660813 5.640947 3.214195 0.385610 -0.333340 0.336610 17.675972 -9.749574 3.100571 -4.913037 2.268564 -26.470726 4.691489 -3.154159 3.569707 -0.232063 -1.926760 3.895163 -0.152710 0.748000 0.620580 -2.058439 -4.312507 -8.512436 0.663722 0.018929 24.599134 1.825727 0.468688 -2.770009 3.668855 3.386543 -11.097046 2.293716 -2.524349 41.247897 -8.274590 0.424940 -14.620480 -21.716806 -11.570126 2.799010 17.077363 7.412617 1.676717 9.339539 -6.867046 -1.401959 -4.047205 2.355228 1.321050 0.347910 0.069470 0.430160 15.257320 10.009717 8.674266 -11.331733 -16.408131 -0.368011 -10.335509 5.642360 0.224309 1.795462 -1.154687 -0.579830 0.507160 0.115350 -0.334380 
0.671330 16.916450 -1.427000 -0.368711 6.465470 -6.019972 -15.738527 14.021458 3.734702 -0.839618 2.085592 4.232582 -9.681680 5.377012 1.610772 -0.665246 5.647208 3.213446 0.388250 -0.335720 0.343270 17.674073 -9.748824 3.096911 -4.946301 2.254070 -26.427442 4.691811 -3.153945 3.541264 -0.232448 -1.927857 3.896425 -0.151250 0.747200 0.618870 -2.051235 -4.315240 -8.508783 0.562018 0.058708 24.592043 1.851837 0.477589 -2.749490 3.679002 3.395770 -11.076102 2.319292 -2.512027 41.241735 -8.314100 0.459350 -14.669720 -21.690884 -11.535998 2.777927 17.089034 7.401206 1.688542 9.295817 -6.908038 -1.404573 -4.047198 2.352452 1.324640 0.347490 0.068400 0.430140 15.216423 9.981061 8.657342 -11.299519 -16.308675 -0.386359 -10.294229 5.665740 0.222884 1.791900 -1.152339 -0.584050 0.510780 0.114820 -0.339550 
0.670580 16.915960 -1.425380 -0.333564 6.418518 -6.016738 -15.740582 14.017742 3.733686 -0.875878 2.092605 4.256547 -9.657728 5.373870 1.605229 -0.670898 5.650278 3.215184 0.388760 -0.338030 0.350730 17.673657 -9.748048 3.094833 -4.947177 2.247101 -26.392349 4.674919 -3.149018 3.491018 -0.232893 -1.927606 3.895058 -0.150970 0.748990 0.616000 -2.046597 -4.310947 -8.504290 0.470329 0.101237 24.539413 1.870290 0.487430 -2.687687 3.681776 3.408279 -11.050694 2.356776 -2.501821 41.192575 -8.358680 0.502740 -14.764150 -21.652700 -11.499956 2.760233 17.107757 7.409963 1.704807 9.180294 -6.940333 -1.405470 -4.045498 2.346749 1.329180 0.347110 0.067350 0.427610 15.175187 9.941553 8.634698 -11.247393 -16.184557 -0.412594 -10.294492 5.708286 0.216565 1.791981 -1.148640 -0.589810 0.516000 0.114440 -0.342860 
